<?xml version="1.0" standalone="no"?>
<!DOCTYPE svg PUBLIC "-//W3C//DTD SVG 20010904//EN"
 "http://www.w3.org/TR/2001/REC-SVG-20010904/DTD/svg10.dtd">
<svg version="1.0" xmlns="http://www.w3.org/2000/svg"
 width="512.000000pt" height="512.000000pt" viewBox="0 0 512.000000 512.000000"
 preserveAspectRatio="xMidYMid meet">

<g transform="translate(0.000000,512.000000) scale(0.100000,-0.100000)"
fill="#000000" stroke="none">
<path d="M1032 3756 l3 -154 -101 -4 c-86 -4 -110 -9 -167 -36 -89 -41 -159
-109 -200 -191 l-32 -66 -6 -410 c-10 -637 -10 -1124 1 -1188 19 -121 97 -235
198 -290 84 -46 150 -57 334 -57 l168 0 0 203 c0 112 3 272 7 355 l6 152 1317
0 1317 0 6 -152 c4 -83 7 -243 7 -355 l0 -203 165 0 c90 0 188 5 217 11 160
34 287 165 318 329 13 70 13 1474 0 1555 -26 162 -153 298 -312 335 -24 5 -77
10 -118 10 l-75 0 3 155 3 155 -101 0 -100 0 0 -155 0 -155 -1330 0 -1330 0 0
155 0 155 -100 0 -101 0 3 -154z m3196 -467 c86 -30 83 -156 -6 -190 -59 -23
-132 30 -132 95 0 49 49 103 96 105 6 1 25 -4 42 -10z"/>
<path d="M1750 1560 l0 -100 863 2 862 3 3 98 3 97 -866 0 -865 0 0 -100z"/>
<path d="M1750 1160 l0 -100 660 0 660 0 0 100 0 100 -660 0 -660 0 0 -100z"/>
</g>
</svg>
